<svg xmlns="http://www.w3.org/2000/svg" viewBox="0 0 518.5 564.29"><defs><style>.cls-1{fill:#ce6a6a;}.cls-2{fill:#dd6464;}.cls-3{fill:#ccb56a;}.cls-4{fill:#deb56a;}.cls-5{fill:#cea955;}.cls-6{fill:#e5bd5c;}</style></defs><g id="Box"><path class="cls-1" d="M384,959l229-85.19a50.89,50.89,0,0,0,34.54-48.19V594.41A60.5,60.5,0,0,0,607,537.3L399,471c-.66-.23-7.5-.42-7.5-1.12h0a1.64,1.64,0,0,0-2.18-1.54l-2.22.78a1.67,1.67,0,0,1-1.08,0l-1.54-.54a1.11,1.11,0,0,0-1.48,1v.15a1.12,1.12,0,0,1-.74,1.05L172.6,535.72a65.17,65.17,0,0,0-43.6,61.5V845c0,7,0,7,5,9" transform="translate(-129 -394.71)"/><path class="cls-2" d="M353,471.12l-189.67,65.4c-11.52,4-11.68,20.19-.26,24.4L379.65,640.7a13,13,0,0,0,8.73.08l224.23-78c11.57-4,11.61-20.36.07-24.45L423.39,471.39A106.73,106.73,0,0,0,353,471.12Z" transform="translate(-129 -394.71)"/></g><g id="Layer_2" data-name="Layer 2"><path class="cls-3" d="M305.86,487.38l232.38,87.89a28.51,28.51,0,0,1,18.42,26.66V894.76L507,913.25V626.84a31.14,31.14,0,0,0-19.26-28.79L258.92,503.56Z" transform="translate(-129 -394.71)"/><path class="cls-3" d="M481.27,491.55,249.38,579.44A28.5,28.5,0,0,0,231,606.1V898.93l49.59,18.49V631a31.15,31.15,0,0,1,19.22-28.79L528.1,507.73Z" transform="translate(-129 -394.71)"/></g><g id="Layer_3" data-name="Layer 3"><path class="cls-4" d="M538,575.36,447.39,541.1l80.42-33.28L481,491.63l-82.11,31.12-93.3-35.29-46.93,16.19,91.23,37.68-100.78,38.2a28.49,28.49,0,0,0-18.38,26.66L281,624c0-12.61,6.89-16.89,18.52-21.7l98.89-40.93,89,36.76C499.07,602.94,506,607.39,506,620l50.37-18A28.49,28.49,0,0,0,538,575.36Z" transform="translate(-129 -394.71)"/></g><g id="Layer_4" data-name="Layer 4"><path class="cls-5" d="M399,555.73s-118.25,55.87-178.24,0-34.71-68.35-34.71-68.35L231,482s-1.58,93.94,141.2,52" transform="translate(-129 -394.71)"/><path class="cls-6" d="M202,537c-4.32-1.32-26.55-27.33-21-48,5.87-21.89,47.14-79.77,88.93-91.09,15.25-4.14,28.51-.7,34.07.95C395,425.9,398.87,518,398.87,518v37.15L384,560.36c-2.6-55.56-41.18-97.31-83.91-100.78-40-3.25-50.09,7.06-77.09,31.42C204.85,507.37,206.29,538.31,202,537Z" transform="translate(-129 -394.71)"/><path class="cls-5" d="M383.86,554.49s127.58,55.87,192.31,0,37.44-68.35,37.44-68.35l-48.49-5.38s1.7,93.94-152.34,52" transform="translate(-129 -394.71)"/><path class="cls-6" d="M596.4,535.76c4.67-1.33,28.64-27.33,22.66-48-6.34-21.89-50.86-79.77-95.94-91.1-16.45-4.13-30.77-.69-36.76,1C388.18,424.66,384,516.76,384,516.76V553.9l16.05,5.21c2.8-55.55,44.43-97.31,90.52-100.78,43.18-3.25,54.05,7.06,83.18,31.43C593.32,506.13,591.78,537.07,596.4,535.76Z" transform="translate(-129 -394.71)"/></g></svg>