<svg id="Layer_1" data-name="Layer 1" xmlns="http://www.w3.org/2000/svg" viewBox="0 0 549 549"><defs><style>.cls-1{fill:#f7d1cd;}.cls-2{fill:#d1b3c4;}.cls-3{fill:#e8c2ca;}.cls-4{fill:#b392ac;}.cls-5{fill:#fff;}</style></defs><circle class="cls-1" cx="274.5" cy="274.5" r="274.5"/><path class="cls-2" d="M648.93,624s44.65,10.94,55.81,35.54,33.48,109.36-50.6,155.15-159.23,58.78-185.27,35.54-12.65-74.23,0-98.63,112.71-43.89,125.18-67S601.31,630.15,648.93,624Z" transform="translate(-178 -392)"/><path class="cls-3" d="M439.66,547.26s-16.5-58.21-36.54-74.85-58.66-43.57-96.43-24.54-90.41,53-99.8,83.86S188.6,675.56,218.5,694.9,313.78,725.5,342.07,708s34.14-94.94,41.83-104.22S448.8,573.73,439.66,547.26Z" transform="translate(-178 -392)"/><path class="cls-4" d="M436.15,432.9s213.71,24.53,244.07,100.43,56,151.81,12.85,184.51-174,36.2-184.51,103.93-23.36,71.74-72.41,77.91S310,886,282,841.63s-58.29-125.29-17.47-175.34,145.92-69.9,150.59-106.1-33.86-86.41-26.86-108.6S436.15,432.9,436.15,432.9Z" transform="translate(-178 -392)"/><path class="cls-5" d="M376,520V746.88s208.7,40,208.7-113.44S376,520,376,520Zm42,151.12V577s84.57-29,84.57,47.06S418,671.12,418,671.12Z" transform="translate(-178 -392)"/></svg>